<svg xmlns="http://www.w3.org/2000/svg" width="480" height="480" viewBox="0 0 480 480">
  <rect width="480" height="480" rx="240" fill="#FDE7CF"/>
  <circle cx="240" cy="240" r="180" fill="#FBD4AD"/>
  <path d="M160 320c20-60 70-95 120-95 60 0 95 30 120 95" fill="#6B3F2A"/>
  <circle cx="240" cy="208" r="82" fill="#F4CCAF"/>
  <path d="M168 182c10-58 48-94 92-94 33 0 64 17 78 46-18-9-39-14-60-14-48 0-89 24-110 62z" fill="#5D3424"/>
  <ellipse cx="196" cy="232" rx="12" ry="16" fill="#2D1C14"/>
  <ellipse cx="284" cy="232" rx="12" ry="16" fill="#2D1C14"/>
  <path d="M214 280c10 18 34 22 48 8" stroke="#B97153" stroke-width="10" stroke-linecap="round"/>
  <circle cx="240" cy="168" r="16" fill="#2D1C14"/>
</svg>
